<svg width="210" height="31" viewBox="0 0 210 31" fill="none" xmlns="http://www.w3.org/2000/svg">
<path d="M2.0825 31C1.6025 31 1.2575 30.895 1.0475 30.685C0.8525 30.46 0.755 30.145 0.755 29.74V2.29C0.755 1.885 0.8525 1.5775 1.0475 1.3675C1.2575 1.1425 1.6025 1.03 2.0825 1.03L19.295 0.962499C19.79 0.962499 20.135 1.075 20.33 1.3C20.525 1.51 20.6225 1.8175 20.6225 2.2225V29.74C20.6225 30.145 20.525 30.46 20.33 30.685C20.135 30.895 19.79 31 19.295 31H2.0825ZM9.0575 23.9575H12.32V8.005H9.0575V23.9575ZM26.5414 31C26.1664 31 25.9789 30.8125 25.9789 30.4375V8.545L23.5714 8.6125C23.1964 8.6125 23.0089 8.425 23.0089 8.05V1.57C23.0089 1.195 23.1964 1.0075 23.5714 1.0075H33.9214C34.2964 1.0075 34.4839 1.195 34.4839 1.57V30.4375C34.4839 30.8125 34.2964 31 33.9214 31H26.5414ZM38.0667 31C37.6917 31 37.5042 30.8125 37.5042 30.4375L37.4817 20.245C37.4817 20.08 37.5117 19.9525 37.5717 19.8625C37.6317 19.7725 37.7292 19.675 37.8642 19.57L44.2992 13.3375V10.7725L37.8192 7.96C37.5942 7.855 37.4817 7.63 37.4817 7.285V1.57C37.4817 1.195 37.6692 1.0075 38.0442 1.0075H44.6367C44.8017 1.0075 44.9367 1.03 45.0417 1.075C45.1617 1.12 45.2892 1.18 45.4242 1.255L53.0742 5.44C53.2392 5.515 53.3367 5.6125 53.3667 5.7325C53.4117 5.8525 53.4342 6.0175 53.4342 6.2275V15.0925C53.4342 15.2425 53.4042 15.37 53.3442 15.475C53.2842 15.58 53.1867 15.6925 53.0517 15.8125L46.1667 22.495V23.5525H53.4342C53.8092 23.5525 53.9967 23.74 53.9967 24.115V30.4375C53.9967 30.8125 53.8092 31 53.4342 31H38.0667ZM57.2159 31C56.8409 31 56.6534 30.8125 56.6534 30.4375V24.1375C56.6534 23.7625 56.8409 23.575 57.2159 23.575H65.6534V19.435H59.0834C58.7084 19.435 58.5209 19.2475 58.5209 18.8725V12.955C58.5209 12.58 58.7084 12.3925 59.0834 12.3925H65.6534V8.6125H57.2159C56.8409 8.6125 56.6534 8.425 56.6534 8.05V1.57C56.6534 1.195 56.8409 1.0075 57.2159 1.0075H68.3984C68.7434 1.0075 69.0434 1.1275 69.2984 1.3675L73.7984 5.8675C74.0384 6.1225 74.1584 6.4225 74.1584 6.7675V11.47C74.1584 11.785 74.0834 12.01 73.9334 12.145L71.2109 15.295V16.7125L73.9334 19.84C74.0834 19.99 74.1584 20.215 74.1584 20.515V25.2175C74.1584 25.5775 74.0384 25.8775 73.7984 26.1175L69.2984 30.6175C69.0434 30.8725 68.7434 31 68.3984 31H57.2159ZM89.8307 31C89.4557 31 89.2682 30.8125 89.2682 30.4375V22.225H78.2657C77.8907 22.225 77.7032 22.0375 77.7032 21.6625V1.57C77.7032 1.195 77.8907 1.0075 78.2657 1.0075H85.4432C85.8182 1.0075 86.0057 1.195 86.0057 1.57V15.025H89.2682V1.57C89.2682 1.195 89.4557 1.0075 89.8307 1.0075H97.0082C97.3832 1.0075 97.5707 1.195 97.5707 1.57V30.4375C97.5707 30.8125 97.3832 31 97.0082 31H89.8307ZM100.835 31C100.46 31 100.272 30.8125 100.272 30.4375V24.1375C100.272 23.7625 100.46 23.575 100.835 23.575H110.082V19.615H100.835C100.46 19.615 100.272 19.4275 100.272 19.0525L100.295 1.57C100.295 1.195 100.482 1.0075 100.857 1.0075H117.822C118.197 1.0075 118.385 1.195 118.385 1.57V7.87C118.385 8.245 118.197 8.4325 117.822 8.4325H108.597V12.3925H117.822C118.197 12.3925 118.385 12.58 118.385 12.955V25.2625C118.385 25.5325 118.295 25.7725 118.115 25.9825L113.345 30.73C113.18 30.91 112.947 31 112.647 31H100.835ZM126.86 31C126.5 31 126.2 30.8725 125.96 30.6175L121.46 26.1175C121.205 25.8775 121.077 25.5775 121.077 25.2175V8.3875C121.077 8.1175 121.19 7.8925 121.415 7.7125L128.817 1.2325C128.982 1.0825 129.207 1.0075 129.492 1.0075H136.535C136.91 1.0075 137.097 1.195 137.097 1.57V5.215C137.097 5.485 136.985 5.71 136.76 5.89L129.852 11.0425V11.875H136.67C137.03 11.875 137.33 12.0025 137.57 12.2575L141.327 15.9925C141.582 16.2475 141.71 16.5475 141.71 16.8925V25.2175C141.71 25.5775 141.582 25.8775 141.327 26.1175L136.827 30.6175C136.572 30.8725 136.272 31 135.927 31H126.86ZM131.495 24.1375C132.455 24.1375 133.145 23.8975 133.565 23.4175C134 22.9225 134.217 22.1275 134.217 21.0325C134.217 19.9225 134 19.1275 133.565 18.6475C133.145 18.1525 132.455 17.905 131.495 17.905C130.55 17.905 129.852 18.1525 129.402 18.6475C128.967 19.1275 128.75 19.9225 128.75 21.0325C128.75 22.1275 128.967 22.9225 129.402 23.4175C129.852 23.8975 130.55 24.1375 131.495 24.1375ZM146.733 31C146.298 31 146.133 30.7975 146.238 30.3925L152.673 9.85V9.13H144.731C144.356 9.13 144.168 8.9425 144.168 8.5675V1.57C144.168 1.195 144.356 1.0075 144.731 1.0075H158.141C158.426 1.0075 158.651 1.12 158.816 1.345L161.853 5.53C162.018 5.785 162.063 6.04 161.988 6.295L155.103 30.505C155.013 30.835 154.811 31 154.496 31H146.733ZM170.717 31C170.357 31 170.057 30.8725 169.817 30.6175L165.317 26.1175C165.062 25.8775 164.935 25.5775 164.935 25.2175V20.3575C164.935 20.0425 165.01 19.8175 165.16 19.6825L167.702 16.7125V15.295L165.16 12.325C165.01 12.19 164.935 11.965 164.935 11.65V6.7675C164.935 6.4225 165.062 6.1225 165.317 5.8675L169.817 1.3675C170.057 1.1275 170.357 1.0075 170.717 1.0075H179.74C180.1 1.0075 180.4 1.1275 180.64 1.3675L185.14 5.8675C185.395 6.1225 185.522 6.4225 185.522 6.7675V11.65C185.522 11.95 185.447 12.175 185.297 12.325L182.755 15.295V16.7125L185.297 19.6825C185.447 19.8325 185.522 20.0575 185.522 20.3575V25.2175C185.522 25.5775 185.395 25.8775 185.14 26.1175L180.64 30.6175C180.4 30.8725 180.1 31 179.74 31H170.717ZM175.217 24.745C176.147 24.745 176.822 24.505 177.242 24.025C177.677 23.53 177.895 22.75 177.895 21.685C177.895 20.62 177.677 19.8475 177.242 19.3675C176.822 18.8875 176.147 18.6475 175.217 18.6475C174.317 18.6475 173.65 18.8875 173.215 19.3675C172.78 19.8475 172.562 20.62 172.562 21.685C172.562 22.75 172.78 23.53 173.215 24.025C173.65 24.505 174.317 24.745 175.217 24.745ZM175.217 13.675C176.132 13.675 176.8 13.4425 177.22 12.9775C177.64 12.4975 177.85 11.725 177.85 10.66C177.85 9.625 177.64 8.8675 177.22 8.3875C176.8 7.9075 176.132 7.6675 175.217 7.6675C174.347 7.6675 173.695 7.9075 173.26 8.3875C172.84 8.8675 172.63 9.625 172.63 10.66C172.63 11.725 172.84 12.4975 173.26 12.9775C173.695 13.4425 174.347 13.675 175.217 13.675ZM203.911 1.0075C204.271 1.0075 204.571 1.135 204.811 1.39L209.311 5.89C209.566 6.13 209.693 6.43 209.693 6.79V23.62C209.693 23.89 209.581 24.115 209.356 24.295L201.953 30.775C201.788 30.925 201.563 31 201.278 31H194.236C193.861 31 193.673 30.8125 193.673 30.4375V26.7925C193.673 26.5225 193.786 26.2975 194.011 26.1175L200.918 20.965V20.1325H194.101C193.741 20.1325 193.441 20.005 193.201 19.75L189.443 16.015C189.188 15.76 189.061 15.46 189.061 15.115V6.79C189.061 6.43 189.188 6.13 189.443 5.89L193.943 1.39C194.198 1.135 194.498 1.0075 194.843 1.0075H203.911ZM199.276 7.87C198.331 7.87 197.641 8.1175 197.206 8.6125C196.771 9.0925 196.553 9.88 196.553 10.975C196.553 12.085 196.771 12.8875 197.206 13.3825C197.641 13.8625 198.331 14.1025 199.276 14.1025C200.221 14.1025 200.911 13.8625 201.346 13.3825C201.796 12.8875 202.021 12.085 202.021 10.975C202.021 9.88 201.796 9.0925 201.346 8.6125C200.911 8.1175 200.221 7.87 199.276 7.87Z" fill="white"/>
</svg>
